<?xml version="1.0" encoding="UTF-8"?> <svg xmlns="http://www.w3.org/2000/svg" xmlns:xlink="http://www.w3.org/1999/xlink" width="500" zoomAndPan="magnify" viewBox="0 0 375 374.999991" height="500" preserveAspectRatio="xMidYMid meet" version="1.0"><rect x="-37.5" width="450" fill="#ffffff" y="-37.499999" height="449.999989" fill-opacity="1"></rect><rect x="-37.5" width="450" fill="#ffffff" y="-37.499999" height="449.999989" fill-opacity="1"></rect><rect x="-37.5" width="450" fill="#ffffff" y="-37.499999" height="449.999989" fill-opacity="1"></rect><rect x="-37.5" width="450" fill="#ffffff" y="-37.499999" height="449.999989" fill-opacity="1"></rect><path fill="#ffffff" d="M 170.601562 138.886719 C 153.445312 137.671875 129.761719 141.007812 124.75 160.730469 C 123.234375 167.859375 120.195312 171.046875 115.035156 175.597656 C 82.542969 217.160156 195.804688 224.140625 201.574219 183.636719 C 213.871094 188.035156 227.234375 189.097656 239.378906 193.496094 C 246.210938 195.925781 252.285156 199.867188 258.054688 203.964844 C 281.585938 220.652344 304.816406 237.945312 328.351562 254.78125 C 319.238281 258.878906 301.933594 274.808594 309.066406 285.578125 C 310.738281 287.703125 313.167969 289.066406 315.292969 290.585938 L 316.355469 291.496094 C 318.785156 293.316406 322.882812 296.195312 325.160156 297.867188 L 325.617188 298.167969 C 325.769531 298.320312 325.921875 298.472656 326.074219 298.472656 C 309.828125 322.441406 290.546875 344.589844 269.289062 364.308594 C 267.46875 365.976562 268.226562 369.769531 270.808594 370.226562 L 273.996094 370.679688 C 284.015625 372.199219 294.339844 373.410156 304.511719 372.652344 C 314.382812 371.589844 320.453125 362.792969 327.136719 356.421875 C 340.648438 342.617188 353.25 327.902344 364.789062 312.429688 L 365.089844 312.125 C 368.734375 307.269531 373.441406 302.265625 373.746094 296.046875 C 374.351562 294.226562 372.683594 291.496094 371.164062 290.128906 L 370.558594 289.371094 C 362.054688 277.082031 352.339844 265.097656 340.191406 256.300781 C 340.191406 254.933594 339.585938 253.570312 338.371094 252.660156 L 287.355469 215.644531 C 274.300781 206.695312 262 196.074219 247.882812 188.792969 C 233.308594 181.816406 216.910156 181.511719 202.03125 175.746094 C 201.726562 171.5 192.921875 170.4375 193.074219 171.046875 C 183.8125 165.433594 178.953125 158.757812 177.433594 152.539062 C 176.070312 146.46875 177.890625 140.855469 170.601562 138.886719 Z M 45.042969 270.863281 C 29.40625 247.199219 14.375 273.441406 7.84375 289.066406 C 0.101562 310.609375 16.195312 337.15625 26.519531 355.816406 C 30.316406 360.972656 35.324219 371.894531 42.007812 372.652344 C 58.859375 372.652344 75.863281 371.441406 92.714844 370.984375 C 103.648438 368.253906 88.3125 351.871094 77.683594 357.785156 C 74.496094 359 72.828125 362.640625 69.789062 363.855469 C 68.574219 364.15625 68.574219 363.550781 68.121094 362.488281 L 68.121094 362.335938 C 67.359375 360.367188 66.449219 358.394531 65.691406 356.421875 C 58.859375 339.429688 51.570312 322.59375 44.285156 305.90625 C 42.765625 302.265625 44.890625 299.230469 47.777344 297.105469 C 49.902344 295.285156 59.164062 291.039062 50.507812 292.859375 C 53.695312 284.972656 49.597656 277.082031 45.042969 270.863281 Z M 84.0625 238.550781 C 82.542969 238.398438 80.570312 239.917969 80.417969 241.433594 C 78.445312 253.722656 80.570312 265.707031 83.152344 277.691406 L 83.605469 279.8125 C 84.515625 284.210938 85.582031 288.613281 88.007812 292.40625 C 90.4375 296.347656 94.082031 299.230469 98.332031 301.050781 C 111.847656 306.359375 128.546875 301.050781 138.566406 291.039062 C 144.945312 282.390625 139.328125 271.46875 138.265625 261.914062 C 139.328125 259.335938 139.628906 256.453125 140.238281 253.722656 L 140.238281 253.417969 L 142.515625 243.558594 C 142.96875 241.433594 141.453125 238.398438 138.871094 238.703125 C 120.5 240.828125 102.128906 240.828125 84.0625 238.550781 Z M 84.0625 238.550781 " fill-opacity="1" fill-rule="evenodd"></path><path fill="#000000" d="M 20.597656 267.675781 C 20.597656 267.375 20.296875 267.222656 20.144531 267.375 C 16.953125 270.40625 14.675781 274.351562 12.25 277.992188 C 9.820312 281.480469 7.390625 284.820312 5.566406 288.613281 C 3.898438 292.253906 2.835938 295.742188 2.53125 299.6875 C 2.226562 303.628906 2.683594 307.421875 3.289062 311.367188 C 4.65625 318.953125 7.542969 326.082031 10.730469 333.058594 C 13.765625 339.734375 17.257812 346.410156 20.902344 352.78125 L 22.269531 355.054688 C 23.9375 357.785156 25.457031 360.667969 27.277344 363.398438 C 29.40625 366.738281 31.378906 370.226562 34.261719 373.109375 C 36.238281 375.082031 40.183594 373.109375 39.121094 370.226562 C 38.664062 369.011719 38.363281 367.800781 37.753906 366.585938 C 37.300781 365.675781 36.691406 364.917969 36.238281 364.007812 C 35.175781 362.335938 34.261719 360.515625 33.199219 358.847656 C 31.074219 355.207031 28.949219 351.566406 26.824219 347.925781 C 23.179688 341.554688 19.839844 335.03125 16.804688 328.507812 L 16.5 327.75 C 13.765625 321.53125 11.035156 315.160156 9.820312 308.484375 C 8.605469 301.507812 9.667969 294.832031 12.25 288.15625 C 13.613281 284.667969 14.980469 281.332031 16.5 278.144531 L 16.804688 277.539062 C 18.167969 274.351562 19.839844 271.167969 20.597656 267.675781 Z M 175.765625 146.167969 C 175.765625 146.015625 175.460938 146.015625 175.460938 146.167969 C 174.550781 152.082031 176.523438 158.453125 179.863281 163.460938 C 181.6875 166.191406 183.8125 168.617188 186.390625 170.589844 L 186.542969 170.742188 C 189.125 172.714844 192.769531 174.6875 195.957031 173.320312 C 196.109375 173.320312 196.109375 173.167969 196.261719 173.167969 C 195.957031 173.777344 195.503906 174.382812 195.199219 174.988281 C 194.136719 176.808594 193.226562 178.628906 192.3125 180.449219 C 190.492188 183.636719 188.367188 186.519531 185.632812 189.097656 C 174.855469 199.109375 159.671875 201.535156 145.398438 201.535156 L 144.335938 201.535156 C 138.113281 201.535156 129.914062 201.839844 125.054688 197.289062 C 122.472656 194.863281 120.957031 191.371094 119.742188 188.1875 C 118.527344 185 117.617188 181.664062 116.550781 178.476562 C 118.828125 176.960938 120.804688 175.140625 122.320312 173.015625 C 123.992188 170.742188 125.207031 168.316406 125.964844 165.585938 L 126.117188 165.128906 C 126.726562 163.003906 127.179688 160.121094 126.269531 158.152344 C 126.117188 157.847656 125.8125 158 125.664062 158.152344 C 125.207031 159.0625 125.054688 160.273438 124.75 161.183594 C 124.449219 162.398438 123.992188 163.613281 123.535156 164.675781 C 122.472656 166.949219 121.257812 169.074219 119.589844 170.894531 C 118.222656 172.410156 116.855469 173.777344 115.1875 174.988281 C 114.273438 173.320312 111.996094 173.167969 110.175781 173.625 C 107.746094 174.382812 105.316406 175.292969 102.886719 176.203125 L 102.433594 176.355469 C 100.003906 177.265625 97.421875 178.175781 95.144531 179.539062 C 93.777344 180.148438 92.5625 180.753906 91.347656 181.359375 C 85.277344 184.242188 79.355469 187.277344 73.433594 190.3125 L 72.21875 190.917969 C 69.789062 192.28125 67.210938 193.496094 65.082031 195.316406 C 62.957031 197.136719 61.136719 199.714844 59.617188 201.992188 C 55.972656 207.300781 52.480469 212.914062 48.839844 218.222656 C 41.550781 229.144531 34.261719 240.066406 26.824219 250.839844 C 25 253.417969 23.027344 255.996094 21.507812 258.726562 C 19.992188 261.304688 19.992188 264.035156 20.296875 266.917969 L 20.296875 267.527344 C 20.902344 272.835938 21.8125 277.992188 24.851562 282.695312 C 29.554688 289.976562 36.996094 294.375 45.042969 297.5625 C 44.132812 298.320312 43.222656 299.078125 42.007812 299.535156 C 40.183594 300.292969 38.363281 300.746094 36.386719 300.898438 C 34.414062 301.050781 31.984375 300.597656 30.316406 301.960938 C 29.707031 302.566406 29.707031 303.78125 30.316406 304.386719 C 31.832031 305.753906 33.960938 305.300781 35.933594 305.148438 L 36.085938 305.148438 C 37.90625 304.996094 39.730469 304.539062 41.398438 303.933594 C 41.855469 303.78125 42.15625 303.628906 42.613281 303.328125 C 42.613281 303.328125 42.613281 303.476562 42.613281 303.476562 C 42.917969 305.753906 43.523438 307.726562 44.132812 309.851562 L 44.585938 311.214844 C 45.5 313.945312 46.257812 316.675781 47.167969 319.40625 C 48.839844 324.566406 50.660156 329.722656 52.480469 334.878906 L 54 339.28125 C 55.671875 343.832031 57.339844 348.382812 59.164062 352.78125 C 60.226562 355.511719 61.441406 358.242188 62.503906 361.125 C 63.566406 363.855469 64.476562 366.738281 65.84375 369.316406 C 66.90625 371.441406 70.09375 369.921875 69.488281 367.800781 C 68.878906 364.917969 67.664062 362.1875 66.753906 359.304688 C 65.84375 356.421875 64.933594 353.691406 63.867188 350.808594 C 62.199219 345.953125 60.378906 341.101562 58.402344 336.398438 L 56.582031 331.695312 C 54.757812 326.992188 52.9375 322.441406 50.964844 317.738281 L 50.8125 317.28125 C 48.839844 312.429688 46.710938 307.121094 42.917969 303.328125 C 42.917969 303.328125 42.765625 303.175781 42.765625 303.175781 C 43.675781 302.71875 44.585938 302.113281 45.347656 301.355469 C 45.648438 301.050781 46.863281 299.535156 47.320312 298.625 C 47.777344 298.777344 48.382812 298.925781 48.839844 299.230469 C 49.75 299.535156 50.507812 299.382812 50.964844 298.777344 L 52.027344 299.382812 C 53.089844 299.988281 54.304688 300.597656 55.367188 300.746094 C 56.886719 300.746094 57.949219 299.988281 58.859375 298.777344 C 59.617188 297.714844 59.921875 296.5 60.832031 295.589844 C 61.742188 294.679688 62.804688 293.769531 63.71875 293.011719 L 64.933594 292.101562 C 67.210938 290.433594 69.335938 288.761719 71.15625 286.640625 C 72.066406 285.578125 73.28125 284.210938 73.890625 282.847656 C 74.042969 282.542969 74.042969 282.390625 74.042969 282.089844 C 74.191406 282.847656 74.34375 283.757812 74.34375 284.515625 C 76.167969 296.195312 77.535156 307.878906 77.988281 319.710938 C 78.140625 325.476562 78.292969 331.390625 77.988281 337.15625 C 77.835938 340.039062 77.683594 342.921875 77.382812 345.800781 C 77.230469 347.320312 77.078125 348.683594 76.925781 350.203125 L 76.925781 350.503906 C 76.925781 350.960938 76.773438 351.414062 76.925781 351.71875 C 75.558594 352.476562 74.648438 354.144531 74.191406 355.511719 C 73.738281 356.574219 74.042969 357.636719 74.800781 358.242188 C 74.042969 359 73.28125 359.910156 72.675781 360.820312 C 72.523438 360.972656 72.828125 361.125 72.980469 361.125 C 74.042969 360.367188 75.105469 359.605469 76.167969 359.152344 C 76.773438 359.457031 77.382812 359.457031 77.988281 359.304688 C 78.597656 359.152344 79.203125 358.695312 79.660156 358.089844 C 82.847656 357.484375 86.339844 358.242188 89.222656 360.214844 C 89.832031 360.667969 90.4375 361.125 90.894531 361.578125 C 91.046875 361.730469 91.046875 361.730469 91.199219 361.882812 L 90.589844 362.1875 C 90.285156 362.335938 90.136719 362.335938 89.984375 362.335938 C 89.375 362.488281 88.921875 362.488281 88.3125 362.488281 L 87.402344 362.488281 C 84.214844 362.792969 80.875 362.792969 77.835938 364.15625 C 77.230469 364.460938 77.382812 365.371094 77.988281 365.523438 C 80.265625 366.128906 82.390625 366.128906 84.667969 365.976562 L 85.125 365.976562 C 87.25 365.828125 89.527344 365.828125 91.5 365.21875 C 91.046875 366.585938 91.652344 368.253906 93.777344 368.558594 C 99.851562 369.316406 106.078125 369.011719 112.148438 368.40625 C 118.375 367.800781 124.449219 367.34375 130.671875 367.039062 C 150.714844 365.976562 170.753906 366.128906 190.945312 366.433594 L 202.335938 366.585938 C 211.445312 366.738281 220.402344 366.738281 229.511719 366.738281 L 233.761719 366.738281 C 235.585938 366.738281 237.40625 366.738281 239.074219 366.585938 L 240.140625 366.585938 C 242.265625 366.433594 245.148438 366.886719 246.972656 365.523438 C 248.488281 364.460938 248.792969 362.640625 247.882812 360.972656 C 247.578125 360.515625 247.273438 360.0625 246.820312 359.757812 C 246.058594 353.085938 245.605469 346.410156 245.148438 339.582031 C 243.628906 316.070312 244.542969 292.707031 248.035156 269.496094 C 257.75 272.378906 267.164062 276.171875 276.425781 280.117188 C 281.433594 282.242188 286.445312 284.515625 291.304688 286.792969 C 295.859375 288.914062 300.261719 291.644531 305.121094 293.011719 C 305.574219 293.464844 306.183594 293.617188 306.636719 293.464844 C 307.09375 293.617188 307.703125 293.464844 308.15625 293.164062 C 308.308594 293.164062 308.308594 293.011719 308.460938 293.011719 L 309.523438 293.464844 C 311.195312 292.40625 312.863281 291.039062 314.078125 289.523438 C 315.597656 290.886719 317.113281 292.101562 318.632812 293.316406 C 320.304688 294.679688 321.972656 296.046875 323.644531 297.410156 C 324.25 298.015625 325.007812 298.472656 325.617188 299.078125 L 325.769531 299.230469 C 323.339844 300.898438 321.0625 303.328125 319.089844 305.449219 C 316.960938 307.726562 314.988281 310.152344 312.863281 312.429688 L 310.890625 314.703125 C 297.074219 330.9375 283.105469 347.925781 265.34375 359.757812 C 262.457031 361.578125 265.191406 366.28125 268.074219 364.308594 C 273.390625 360.667969 278.398438 356.574219 283.257812 352.324219 C 291.609375 345.042969 299.199219 336.546875 306.335938 327.902344 C 309.980469 323.503906 313.472656 318.953125 316.8125 314.402344 L 318.027344 312.882812 C 319.542969 310.761719 321.0625 308.789062 322.582031 306.664062 L 322.882812 306.210938 C 324.25 304.386719 325.617188 302.265625 326.375 300.140625 C 326.679688 300.445312 327.136719 300.746094 327.589844 300.898438 C 328.5 301.203125 329.5625 300.445312 329.867188 299.6875 C 330.476562 297.5625 328.5 296.347656 326.984375 295.136719 C 325.160156 293.769531 323.339844 292.40625 321.367188 291.191406 L 320.757812 290.734375 C 318.480469 289.066406 316.050781 287.398438 313.472656 286.03125 C 313.320312 285.882812 313.320312 285.882812 313.167969 285.730469 C 313.015625 285.578125 312.863281 285.578125 312.863281 285.425781 C 315.898438 280.421875 319.238281 275.71875 323.035156 271.167969 C 325.921875 267.828125 328.804688 264.492188 331.992188 261.457031 L 333.359375 260.09375 C 335.484375 257.96875 337.761719 255.996094 340.039062 254.175781 L 340.800781 255.085938 C 341.863281 256.148438 342.773438 257.363281 343.835938 258.421875 C 345.960938 260.546875 347.933594 262.671875 350.0625 264.796875 C 353.402344 268.285156 356.742188 271.925781 360.082031 275.566406 L 361.75 277.386719 C 365.242188 281.179688 368.886719 284.972656 371.921875 288.914062 L 372.074219 289.066406 C 373.441406 290.886719 374.351562 292.859375 373.746094 295.136719 C 373.136719 297.410156 371.621094 299.382812 370.40625 301.203125 L 370.253906 301.355469 C 365.089844 309.242188 359.777344 316.980469 353.855469 324.414062 C 342.164062 339.28125 328.804688 353.234375 312.863281 363.550781 C 310.585938 364.917969 312.710938 368.558594 314.988281 367.039062 C 324.25 360.972656 332.90625 353.691406 340.648438 345.800781 C 347.933594 338.671875 354.464844 330.632812 360.535156 322.59375 C 363.574219 318.648438 366.457031 314.550781 369.191406 310.457031 C 371.921875 306.511719 374.960938 302.265625 376.78125 297.867188 C 377.84375 295.589844 378.148438 293.011719 377.390625 290.585938 C 376.628906 288.308594 375.113281 286.488281 373.59375 284.667969 L 373.441406 284.515625 C 369.796875 280.421875 366.15625 276.476562 362.511719 272.53125 C 358.867188 268.585938 354.917969 264.796875 350.972656 261.003906 C 347.933594 258.121094 344.59375 255.542969 341.253906 253.113281 C 341.558594 252.960938 341.863281 252.660156 342.164062 252.507812 C 343.078125 251.902344 343.378906 250.535156 342.46875 249.625 C 340.191406 247.351562 337.460938 245.226562 335.03125 243.101562 C 332.601562 241.128906 330.324219 239.15625 327.894531 237.035156 C 323.035156 232.9375 318.328125 228.84375 313.472656 224.898438 C 304.816406 217.617188 296.316406 210.183594 287.660156 202.902344 C 284.015625 199.867188 280.523438 196.835938 276.878906 193.800781 L 270.503906 188.339844 L 267.316406 185.761719 C 265.644531 184.394531 264.128906 183.03125 262.304688 182.121094 C 258.054688 179.691406 252.890625 178.628906 248.1875 177.417969 L 247.882812 177.265625 C 242.566406 175.746094 237.253906 174.382812 231.941406 173.167969 C 226.625 171.957031 221.160156 170.894531 215.695312 169.832031 C 210.835938 168.921875 205.828125 168.164062 200.816406 168.011719 C 199.601562 167.554688 198.082031 167.40625 196.867188 167.859375 C 196.414062 168.011719 195.804688 168.316406 195.351562 168.769531 C 192.921875 167.859375 190.492188 167.554688 188.214844 166.039062 C 185.9375 164.671875 183.964844 162.703125 182.292969 160.578125 C 178.953125 156.480469 177.132812 151.476562 175.765625 146.167969 Z M 120.042969 292.253906 C 122.019531 292.101562 123.6875 292.859375 125.359375 293.769531 C 124.449219 294.226562 123.386719 294.679688 122.472656 294.984375 L 116.097656 297.714844 C 113.972656 298.625 111.695312 299.382812 109.71875 300.597656 C 109.570312 300.746094 109.417969 300.746094 109.417969 300.898438 C 107.292969 299.535156 105.015625 298.320312 102.886719 297.105469 C 102.433594 296.804688 101.976562 296.5 101.371094 296.195312 C 103.949219 297.105469 106.53125 297.410156 109.265625 296.652344 C 112.910156 295.589844 116.097656 292.554688 120.042969 292.253906 Z M 114.730469 285.882812 L 115.035156 285.578125 C 116.855469 284.363281 119.132812 282.695312 121.410156 283.757812 C 122.472656 284.363281 123.386719 285.121094 124.449219 285.730469 C 125.511719 286.335938 126.726562 286.792969 127.789062 287.09375 C 129.761719 287.550781 132.039062 287.550781 134.164062 287.246094 L 134.164062 290.128906 C 132.496094 290.734375 130.976562 291.496094 129.457031 292.101562 C 128.394531 291.796875 127.484375 291.34375 126.421875 290.886719 L 125.664062 290.585938 C 123.6875 289.675781 121.5625 289.066406 119.4375 289.371094 C 115.339844 289.976562 112.148438 293.011719 108.050781 294.074219 C 103.191406 295.285156 98.789062 291.644531 94.082031 290.734375 C 93.324219 290.585938 92.5625 290.433594 91.804688 290.433594 L 91.347656 290.433594 C 90.285156 289.824219 88.921875 289.21875 88.160156 288.308594 C 87.402344 287.246094 87.402344 285.425781 87.097656 284.210938 C 87.097656 284.0625 87.097656 283.910156 87.097656 283.910156 C 87.554688 283.910156 88.007812 283.910156 88.464844 284.0625 C 89.832031 284.363281 91.199219 284.820312 92.5625 285.425781 C 94.992188 286.488281 97.421875 287.703125 100.15625 288.460938 C 102.738281 289.21875 105.46875 289.523438 108.050781 289.066406 C 110.480469 288.460938 112.605469 287.246094 114.730469 285.882812 Z M 114.273438 275.871094 L 114.730469 275.566406 C 115.792969 274.960938 116.855469 274.199219 118.222656 274.503906 C 119.285156 274.65625 120.347656 275.566406 121.257812 276.171875 C 123.386719 277.386719 125.8125 277.992188 128.242188 278.144531 C 130.21875 278.296875 132.34375 277.992188 134.316406 277.386719 L 134.316406 283.757812 C 133.558594 283.910156 132.796875 284.210938 132.039062 284.210938 C 129.609375 284.363281 127.332031 283.757812 125.359375 282.542969 L 124.296875 281.9375 C 122.625 280.875 120.957031 279.964844 118.679688 280.269531 C 116.402344 280.722656 114.578125 282.089844 112.757812 283.300781 L 112.453125 283.453125 C 110.328125 284.820312 108.203125 285.730469 105.621094 285.730469 C 102.886719 285.730469 100.003906 284.972656 97.421875 284.0625 C 94.839844 283.152344 92.414062 281.9375 89.679688 281.632812 C 88.769531 281.480469 87.859375 281.480469 86.792969 281.632812 C 86.644531 280.875 86.492188 280.269531 86.492188 279.511719 C 86.1875 277.992188 86.035156 276.476562 85.882812 274.960938 C 90.742188 273.59375 95.296875 277.839844 99.851562 279.207031 C 102.433594 279.964844 105.316406 279.964844 108.050781 279.207031 C 110.328125 278.601562 112.300781 277.082031 114.273438 275.871094 Z M 114.273438 265.25 C 115.339844 265.097656 116.402344 265.554688 117.3125 266.007812 C 119.589844 267.222656 121.5625 269.042969 124.144531 269.648438 C 127.484375 270.558594 131.128906 269.800781 134.316406 268.4375 C 134.316406 270.40625 134.316406 272.378906 134.316406 274.199219 C 133.707031 274.503906 133.101562 274.65625 132.34375 274.808594 C 130.066406 275.261719 127.636719 275.261719 125.359375 274.65625 C 123.082031 274.050781 121.257812 272.078125 118.980469 271.621094 C 116.550781 271.015625 114.425781 272.226562 112.453125 273.441406 L 111.847656 273.898438 C 109.71875 275.414062 107.59375 276.628906 104.863281 276.929688 C 101.976562 277.234375 99.394531 276.324219 96.816406 275.109375 L 96.207031 274.808594 C 92.867188 273.289062 88.769531 271.621094 85.429688 273.289062 C 85.125 270.863281 84.972656 268.4375 84.820312 266.007812 C 85.277344 265.855469 85.730469 265.707031 86.339844 265.707031 C 87.554688 265.707031 88.921875 266.160156 90.136719 266.464844 C 92.714844 267.375 95.144531 268.738281 97.726562 269.800781 C 100.15625 270.710938 102.886719 271.167969 105.46875 270.863281 C 107.898438 270.40625 109.71875 269.195312 111.390625 267.527344 L 111.695312 267.222656 C 112.453125 266.3125 113.210938 265.402344 114.273438 265.25 Z M 112.453125 256.148438 C 113.667969 255.542969 115.1875 254.933594 116.550781 255.085938 C 117.917969 255.238281 118.828125 256.148438 119.589844 257.058594 L 120.042969 257.511719 C 121.5625 259.183594 122.929688 260.699219 125.207031 261.457031 C 127.484375 262.214844 130.066406 261.914062 132.191406 260.851562 C 132.949219 260.394531 133.707031 259.941406 134.46875 259.484375 L 134.46875 264.644531 C 132.949219 265.402344 131.582031 266.007812 129.914062 266.464844 C 126.875 267.222656 124.449219 266.617188 121.867188 264.945312 L 121.5625 264.796875 C 119.589844 263.582031 117.617188 262.066406 115.339844 261.914062 C 113.0625 261.761719 111.238281 263.125 109.71875 264.644531 L 109.570312 264.796875 C 107.59375 266.765625 105.621094 267.828125 102.886719 267.527344 C 100.15625 267.375 97.574219 266.007812 94.992188 264.945312 L 94.691406 264.796875 C 92.414062 263.886719 89.679688 262.824219 87.097656 263.277344 C 86.492188 263.429688 85.730469 263.582031 84.972656 263.886719 C 84.820312 261.457031 84.820312 259.03125 84.820312 256.753906 C 86.339844 255.542969 88.464844 255.238281 90.285156 255.84375 C 93.171875 256.601562 95.449219 258.726562 98.183594 259.941406 C 100.609375 261.003906 103.039062 261.15625 105.621094 260.246094 C 108.050781 259.335938 110.023438 257.511719 112.453125 256.148438 Z M 84.820312 246.136719 C 89.070312 246.289062 93.171875 249.019531 97.269531 250.082031 C 101.824219 251.292969 105.46875 249.625 109.570312 247.804688 L 110.023438 247.5 C 112.148438 246.589844 114.273438 245.832031 116.550781 246.136719 C 118.828125 246.441406 120.804688 247.804688 122.777344 248.867188 L 123.082031 249.019531 C 126.574219 250.992188 130.21875 252.355469 134.316406 252.050781 C 134.316406 253.265625 134.316406 254.632812 134.316406 255.84375 C 133.710938 256.300781 132.949219 256.601562 132.34375 257.058594 L 132.191406 257.210938 C 130.21875 258.421875 128.242188 259.183594 125.964844 258.421875 C 123.6875 257.664062 122.625 255.691406 121.105469 254.175781 C 119.742188 252.660156 117.765625 251.75 115.792969 251.902344 C 113.515625 252.050781 111.390625 252.960938 109.570312 254.175781 C 107.746094 255.390625 105.925781 256.90625 103.800781 257.511719 C 98.941406 258.878906 94.839844 253.722656 90.136719 252.960938 C 88.160156 252.660156 86.035156 253.113281 84.667969 254.175781 C 84.667969 251.597656 84.820312 248.867188 84.820312 246.136719 Z M 121.410156 244.921875 C 122.019531 244.921875 122.625 244.921875 123.234375 244.921875 C 125.511719 245.074219 127.636719 245.074219 129.914062 245.226562 C 131.429688 245.378906 133.40625 245.832031 134.773438 245.378906 C 134.773438 245.53125 134.921875 245.679688 134.921875 245.832031 C 134.773438 246.894531 134.621094 248.109375 134.46875 249.320312 C 133.101562 249.472656 131.734375 249.472656 130.21875 249.171875 C 127.179688 248.5625 124.449219 246.441406 121.410156 244.921875 Z M 84.972656 244.011719 C 93.019531 244.621094 101.21875 244.316406 109.417969 244.621094 L 110.328125 244.621094 C 110.328125 244.621094 110.480469 244.621094 110.480469 244.621094 C 109.570312 244.921875 108.65625 245.378906 107.746094 245.832031 L 106.835938 246.289062 C 104.710938 247.351562 102.433594 248.109375 100.003906 247.957031 C 97.421875 247.804688 94.992188 246.742188 92.5625 245.832031 C 90.285156 245.074219 87.554688 244.46875 85.125 244.769531 C 84.820312 244.46875 84.972656 244.164062 84.972656 244.011719 Z M 84.972656 244.011719 " fill-opacity="1" fill-rule="evenodd"></path><path fill="#ffffff" d="M 152.175781 25.246094 C 133.957031 25.246094 107.238281 37.382812 105.261719 49.0625 C 102.832031 62.867188 97.671875 114.75 100.554688 131.589844 C 103.441406 148.578125 114.523438 161.019531 139.121094 161.019531 C 163.714844 161.019531 182.085938 147.515625 186.335938 142.964844 C 189.222656 139.933594 192.257812 133.558594 195.597656 124.003906 C 204.558594 122.488281 209.113281 118.085938 209.113281 110.957031 C 209.113281 103.828125 206.835938 99.125 202.28125 96.847656 C 204.859375 67.269531 203.496094 48.761719 198.332031 41.480469 C 190.589844 30.40625 170.246094 25.246094 152.175781 25.246094 Z M 152.175781 25.246094 " fill-opacity="1" fill-rule="evenodd"></path><path fill="#000000" d="M 157.339844 0.21875 C 154 0.21875 150.660156 0.367188 147.320312 0.671875 C 147.167969 0.671875 147.015625 0.671875 146.863281 0.671875 C 140.488281 0.0664062 134.261719 0.671875 127.886719 0.824219 C 121.8125 1.128906 115.433594 1.734375 110.121094 4.617188 C 109.363281 4.917969 108.90625 5.375 108.300781 5.828125 C 107.539062 5.980469 106.933594 6.132812 106.324219 6.4375 C 104.65625 6.132812 102.683594 6.890625 102.226562 8.863281 C 101.617188 11.898438 101.46875 14.78125 101.769531 17.8125 C 101.769531 17.8125 101.769531 17.964844 101.769531 17.964844 C 101.011719 20.695312 101.164062 23.730469 101.769531 26.613281 C 101.46875 30.101562 101.316406 33.589844 101.316406 37.078125 C 101.316406 39.507812 101.164062 41.933594 101.46875 44.363281 C 101.617188 46.484375 102.53125 48.152344 103.894531 49.671875 C 104.199219 49.972656 104.65625 49.972656 104.960938 49.972656 C 105.109375 49.972656 105.109375 49.972656 105.261719 49.972656 C 104.503906 51.792969 103.746094 53.613281 103.136719 55.433594 C 102.074219 58.316406 101.011719 61.199219 100.253906 64.082031 C 98.734375 70 97.824219 76.066406 97.214844 82.132812 C 96.152344 92.90625 95.851562 103.828125 95.699219 114.75 C 95.546875 125.066406 96.457031 135.835938 102.226562 144.632812 C 107.386719 152.371094 115.132812 157.984375 123.9375 161.019531 C 128.949219 162.6875 134.414062 163.445312 139.574219 163.597656 C 142.308594 163.75 145.042969 163.597656 147.621094 163.292969 C 150.203125 162.988281 152.9375 162.988281 154.757812 161.019531 C 155.214844 160.410156 155.214844 159.347656 154.453125 159.046875 C 152.9375 158.4375 152.023438 158.289062 150.355469 158.589844 C 148.988281 158.742188 147.621094 158.894531 146.253906 159.046875 C 143.371094 159.199219 140.488281 159.199219 137.601562 159.046875 C 132.289062 158.589844 126.820312 157.074219 122.117188 154.796875 C 114.523438 151.15625 108.148438 145.394531 104.503906 137.65625 C 100.40625 128.707031 100.707031 118.390625 100.859375 108.832031 C 101.011719 98.367188 101.46875 87.898438 102.378906 77.433594 C 102.832031 72.425781 103.441406 67.269531 104.046875 62.261719 C 104.351562 59.53125 104.808594 56.953125 105.261719 54.222656 C 105.566406 52.855469 105.871094 51.492188 106.171875 49.972656 C 106.324219 49.972656 106.628906 49.972656 106.78125 49.972656 C 108.148438 49.972656 109.515625 49.671875 110.578125 48.761719 C 111.03125 49.0625 111.488281 49.214844 112.09375 49.214844 C 117.5625 49.519531 123.179688 49.214844 128.796875 49.214844 C 134.414062 49.214844 139.878906 49.214844 145.496094 49.214844 C 150.960938 49.214844 156.578125 49.214844 162.199219 49.0625 C 167.359375 48.914062 172.671875 49.0625 177.835938 48.152344 C 179.503906 54.222656 179.503906 60.898438 175.863281 66.359375 C 174.800781 67.875 175.710938 69.695312 176.925781 70.605469 C 178.292969 71.515625 180.71875 73.03125 182.695312 73.183594 C 182.847656 73.640625 183.148438 74.09375 183.300781 74.550781 C 184.210938 76.824219 185.125 79.101562 185.730469 81.375 C 186.035156 82.589844 186.335938 83.804688 186.488281 85.167969 C 186.488281 85.320312 186.488281 85.625 186.488281 85.773438 C 186.488281 85.925781 186.488281 85.925781 186.488281 86.078125 C 186.335938 86.683594 186.1875 87.292969 186.1875 87.898438 C 185.882812 89.414062 185.730469 90.933594 185.425781 92.449219 C 185.125 95.332031 185.125 98.972656 187.855469 100.640625 C 189.375 101.550781 191.042969 101.398438 192.714844 100.792969 C 193.777344 100.339844 194.6875 99.882812 195.597656 99.277344 C 196.207031 98.972656 196.8125 98.667969 197.269531 98.367188 C 197.421875 98.214844 197.574219 98.214844 197.726562 98.0625 C 198.789062 98.214844 199.851562 98.667969 200.304688 98.972656 C 201.824219 99.730469 203.191406 100.792969 204.253906 102.160156 C 206.683594 104.890625 207.441406 108.683594 207.136719 112.171875 C 206.835938 115.507812 205.46875 119.148438 202.886719 121.425781 C 201.824219 122.335938 200.304688 122.941406 198.9375 122.941406 C 198.179688 122.941406 197.574219 122.789062 196.8125 122.636719 C 196.054688 122.488281 195.296875 122.488281 194.6875 122.183594 C 193.777344 121.726562 192.5625 122.941406 193.019531 123.851562 C 193.320312 124.609375 193.472656 125.21875 193.777344 125.824219 C 191.195312 130.222656 188.160156 134.320312 185.125 138.414062 C 182.390625 142.054688 179.050781 145.089844 176.015625 148.425781 C 174.648438 149.945312 174.039062 152.824219 176.621094 153.433594 C 179.050781 154.039062 180.871094 151.460938 182.390625 149.792969 C 188.3125 143.117188 192.714844 135.378906 194.839844 126.734375 C 195.75 127.339844 196.8125 127.796875 198.027344 127.949219 C 200.304688 128.25 202.582031 127.796875 204.558594 126.734375 C 211.996094 122.335938 213.816406 110.652344 210.328125 103.371094 C 209.414062 101.550781 208.199219 100.035156 206.683594 98.820312 C 206.835938 98.519531 206.835938 98.367188 206.835938 98.0625 C 206.683594 97.609375 206.53125 97 206.378906 96.546875 C 206.53125 96.394531 206.683594 96.242188 206.683594 96.089844 C 206.53125 94.574219 206.378906 93.207031 206.226562 91.691406 C 206.226562 89.566406 206.378906 87.292969 206.378906 85.167969 C 206.378906 81.679688 206.074219 78.191406 206.074219 74.699219 C 206.074219 62.566406 205.46875 50.277344 205.46875 38.140625 C 205.46875 32.226562 205.46875 26.15625 205.621094 20.242188 C 205.621094 20.089844 205.621094 20.089844 205.621094 19.9375 C 205.773438 15.234375 206.984375 8.863281 202.28125 5.679688 C 201.519531 5.222656 200.609375 5.222656 199.699219 5.527344 C 197.269531 3.859375 194.234375 3.097656 191.347656 2.644531 C 185.882812 1.734375 180.265625 1.277344 174.800781 0.824219 C 171.914062 0.519531 168.878906 0.367188 165.992188 0.519531 C 163.261719 0.367188 160.375 0.0664062 157.339844 0.21875 Z M 201.824219 106.863281 C 200.761719 105.800781 199.242188 106.101562 197.875 106.40625 C 196.054688 106.710938 194.382812 107.46875 192.867188 108.53125 C 191.195312 109.59375 189.222656 111.109375 188.917969 113.082031 C 188.617188 114.902344 190.4375 117.023438 192.410156 115.8125 C 194.234375 114.597656 194.992188 112.472656 196.660156 110.957031 C 197.421875 110.199219 198.179688 109.59375 199.089844 108.984375 C 199.546875 108.683594 199.851562 108.378906 200.304688 108.226562 C 200.304688 108.226562 202.128906 107.621094 201.824219 108.378906 C 201.671875 108.683594 201.976562 108.832031 202.28125 108.683594 C 202.734375 108.074219 202.429688 107.46875 201.824219 106.863281 Z M 201.824219 106.863281 " fill-opacity="1" fill-rule="evenodd"></path><path fill="#000000" d="M 131.695312 137.976562 C 133.820312 137.066406 135.792969 135.699219 137.160156 133.730469 C 137.765625 133.121094 137.765625 132.363281 137.765625 131.757812 C 137.617188 131 137.160156 130.390625 136.703125 129.9375 C 136.097656 129.480469 135.488281 129.328125 134.730469 129.328125 C 134.125 129.480469 133.515625 129.785156 133.0625 130.390625 L 132.910156 130.542969 C 131.996094 131.605469 130.933594 132.667969 129.71875 133.273438 C 128.507812 133.878906 127.140625 134.183594 125.773438 134.03125 C 123.191406 133.730469 121.371094 132.363281 119.394531 130.390625 C 119.09375 130.089844 118.941406 129.9375 118.636719 129.632812 C 118.484375 129.328125 118.332031 129.179688 118.03125 129.179688 C 117.726562 129.027344 117.421875 129.027344 117.269531 129.179688 C 116.96875 129.328125 116.816406 129.480469 116.664062 129.632812 C 116.511719 129.785156 116.359375 130.089844 116.511719 130.390625 C 116.664062 132.363281 117.726562 134.183594 119.246094 135.550781 C 120.914062 137.066406 123.039062 138.128906 125.164062 138.582031 C 127.292969 139.191406 129.570312 138.886719 131.695312 137.976562 Z M 123.949219 107.03125 C 121.523438 108.546875 117.878906 111.882812 120.460938 115.523438 C 123.496094 118.710938 127.898438 115.070312 130.175781 113.402344 C 132.148438 112.035156 134.425781 115.375 132.605469 116.890625 C 116.816406 128.570312 110.4375 107.484375 122.738281 105.359375 C 124.101562 105.058594 124.558594 106.574219 123.949219 107.03125 Z M 152.191406 93.527344 C 151.886719 90.191406 146.875 89.433594 146.421875 92.769531 C 145.964844 95.652344 146.574219 98.382812 147.789062 101.113281 C 149.003906 103.691406 152.191406 102.480469 152.496094 100.203125 C 152.644531 97.019531 152.34375 95.5 152.191406 93.527344 Z M 113.625 92.011719 C 112.867188 91.101562 111.957031 90.496094 110.742188 90.796875 C 106.945312 91.859375 108.007812 97.320312 109.375 99.898438 C 110.136719 101.265625 112.414062 101.71875 113.476562 100.507812 C 115.144531 98.382812 116.054688 94.285156 113.777344 92.316406 C 113.777344 92.316406 113.625 92.164062 113.625 92.011719 Z M 147.789062 78.964844 L 147.179688 78.8125 C 145.359375 78.511719 142.929688 78.207031 141.714844 79.722656 C 140.957031 80.480469 140.804688 82 141.714844 82.757812 C 143.386719 84.125 145.207031 83.515625 147.179688 83.667969 C 148.851562 83.820312 150.367188 83.972656 151.886719 84.425781 C 155.378906 85.335938 158.113281 87.15625 161.148438 89.128906 C 161.605469 89.433594 161.90625 88.824219 161.753906 88.523438 C 160.085938 85.183594 156.746094 82.453125 153.40625 80.785156 C 151.582031 80.027344 149.761719 79.269531 147.789062 78.964844 Z M 117.117188 77.449219 L 116.664062 77.601562 C 111.652344 78.660156 105.125 80.785156 102.695312 85.640625 C 102.542969 86.398438 102.695312 86.550781 102.847656 86.550781 C 102.847656 86.703125 103 86.703125 103.304688 86.855469 C 103.453125 86.855469 103.453125 86.855469 103.605469 86.855469 C 104.667969 86.550781 105.582031 86.246094 106.339844 85.792969 L 107.25 85.335938 C 108.3125 84.882812 109.375 84.273438 110.4375 83.972656 C 112.867188 83.214844 115.296875 82.605469 117.726562 82.304688 C 118.332031 82.304688 118.789062 82 119.246094 81.695312 C 119.699219 81.394531 120.003906 80.9375 120.003906 80.480469 C 120.15625 79.722656 120.15625 79.269531 119.699219 78.660156 C 119.394531 78.207031 118.941406 77.902344 118.484375 77.601562 C 118.183594 77.449219 117.574219 77.296875 117.117188 77.449219 Z M 117.117188 77.449219 " fill-opacity="1" fill-rule="evenodd"></path></svg> 